<!-- Generated by IcoMoon.io -->
<svg version="1.1" xmlns="http://www.w3.org/2000/svg" width="33" height="32" viewBox="0 0 33 32">
<title>astronaut</title>
<path fill="#4d5ae5" d="M31.512 4.196c-0.059-0.177-0.211-0.308-0.396-0.336l-0.003-0-1.772-0.258-0.793-1.606c-0.166-0.339-0.721-0.339-0.887 0l-0.793 1.606-1.772 0.258c-0.241 0.036-0.424 0.242-0.424 0.49 0 0.139 0.057 0.264 0.149 0.354l1.282 1.25-0.303 1.765c-0.032 0.186 0.045 0.373 0.197 0.484 0.154 0.112 0.355 0.126 0.521 0.038l1.585-0.833 1.585 0.833c0.067 0.036 0.146 0.056 0.23 0.056 0.274 0 0.495-0.222 0.495-0.495 0-0.029-0.003-0.058-0.007-0.085l0 0.003-0.302-1.765 1.283-1.25c0.092-0.090 0.149-0.216 0.149-0.355 0-0.055-0.009-0.107-0.025-0.156l0.001 0.003zM29.228 5.427c-0.116 0.113-0.17 0.277-0.142 0.438l0.177 1.033-0.928-0.487c-0.067-0.036-0.146-0.057-0.23-0.057s-0.164 0.021-0.233 0.058l0.003-0.001-0.928 0.487 0.177-1.033c0.005-0.025 0.007-0.054 0.007-0.084 0-0.139-0.057-0.264-0.149-0.354l-0.751-0.732 1.038-0.151c0.161-0.023 0.3-0.125 0.372-0.271l0.464-0.94 0.465 0.94c0.072 0.146 0.211 0.248 0.373 0.271l1.037 0.151-0.75 0.732zM26.095 19.035h-0.99v0.99h0.99v-0.99zM26.095 21.014h-0.99v0.99h0.99v-0.99z"></path>
<path fill="#4d5ae5" d="M27.084 20.025h-0.989v0.989h0.989v-0.989zM25.106 20.025h-0.99v0.989h0.99v-0.989zM22.632 24.477h-0.989v0.989h0.989v-0.989zM22.632 26.456h-0.989v0.989h0.989v-0.989zM23.622 25.466h-0.99v0.99h0.99v-0.99z"></path>
<path fill="#4d5ae5" d="M21.643 25.466h-0.99v0.99h0.99v-0.99zM16.696 22.498h-0.989v0.99h0.989v-0.99zM16.696 24.477h-0.989v0.989h0.989v-0.989zM17.685 23.488h-0.989v0.989h0.989v-0.989zM15.706 23.488h-0.99v0.989h0.99v-0.989zM7.296 5.678h-0.989v0.989h0.989v-0.989zM7.296 7.657h-0.989v0.99h0.989v-0.989zM8.286 6.668h-0.989v0.99h0.989v-0.99zM6.307 6.668h-0.99v0.99h0.99v-0.99z"></path>
<path fill="#2e2f42" d="M24.779 13.133c-0.26-0.349-0.648-0.59-1.094-0.653l-0.009-0.001c-0.071-0.011-0.152-0.017-0.235-0.017-0.381 0-0.732 0.129-1.011 0.347l0.004-0.003-1.161 0.89-1.76 1.315-1.259-0.502c2.246-1.007 3.815-3.254 3.815-5.862 0-3.546-2.896-6.431-6.457-6.431s-6.457 2.885-6.457 6.431c0 1.285 0.384 2.48 1.039 3.486l-2.568-0.022c-0.008 0-0.014 0.004-0.022 0.005-0.049 0.002-0.097 0.012-0.144 0.028-0.012 0.005-0.024 0.007-0.036 0.013-0.006 0.002-0.012 0.003-0.018 0.006l-3 1.481-1.756 0.845c-0.022 0.010-0.042 0.021-0.060 0.033l0.001-0.001c-0.447 0.3-0.737 0.804-0.737 1.375 0 0.275 0.067 0.535 0.186 0.763l-0.004-0.009c0.204 0.398 0.552 0.691 0.979 0.825 0.149 0.049 0.32 0.077 0.498 0.077 0.286 0 0.555-0.073 0.789-0.201l-0.009 0.004 1.287-0.685 2.1-1.085 1.259-0.007-5.048 5.023c0 0.001-0.001 0.001-0.001 0.001l-1.241 1.236c-0.281 0.277-0.454 0.662-0.454 1.088 0 0.002 0 0.003 0 0.005v-0c0 0.413 0.161 0.801 0.454 1.093 0.301 0.3 0.697 0.45 1.094 0.45s0.793-0.15 1.095-0.45l1.219-1.214 1.614-1.206 0.836 0.832-2.877 2.865c-0.281 0.277-0.455 0.662-0.455 1.088 0 0.001 0 0.003 0 0.004v-0c0 0.413 0.161 0.801 0.455 1.094 0.301 0.3 0.698 0.45 1.095 0.45s0.793-0.15 1.095-0.45l3.23-3.215c0-0.001 0-0.001 0.001-0.002l0.936-0.928-0.004-0.003c0.006-0.006 0.014-0.008 0.020-0.014l4.792-5.248 3.219 0.458c0.019 0.003 0.041 0.004 0.063 0.004 0.065 0 0.127-0.013 0.184-0.036l-0.003 0.001c0.016-0.006 0.031-0.014 0.046-0.022 0.018-0.009 0.036-0.014 0.053-0.025l2.981-1.979c0.011-0.007 0.017-0.019 0.027-0.027s0.026-0.013 0.037-0.023l1.18-1.105c0.322-0.302 0.523-0.73 0.523-1.205 0-0.371-0.123-0.714-0.33-0.99l0.003 0.004zM3.831 16.482c-0.16 0.086-0.343 0.103-0.518 0.048-0.273-0.086-0.468-0.337-0.468-0.634 0-0.219 0.106-0.413 0.269-0.534l0.002-0.001 1.219-0.586 0.293 0.857 0.123 0.36-0.921 0.489zM7.075 14.787l-1.436 0.742-0.237-0.693-0.17-0.498 1.88-0.928-0.037 1.376zM21.080 8.646c0 0.852-0.203 1.656-0.556 2.374l-3.878-1.761c-0.040-0.534-0.317-0.995-0.726-1.284l-0.005-0.004 1.358-4.508c2.205 0.701 3.807 2.758 3.807 5.182zM10.145 8.646c0-3.001 2.453-5.442 5.467-5.442 0.235 0 0.464 0.020 0.691 0.049l-1.328 4.409c-0.018 0-0.035-0.005-0.053-0.005-0 0-0 0-0 0-0.957 0-1.733 0.774-1.736 1.731v0c0.003 0.957 0.779 1.731 1.736 1.731 0 0 0 0 0.001 0h-0c0.644 0 1.201-0.355 1.501-0.876l3.583 1.628c-0.997 1.342-2.592 2.217-4.393 2.217-3.014 0-5.467-2.442-5.467-5.442zM15.67 9.389c0 0.409-0.336 0.742-0.748 0.742-0.001 0-0.001 0-0.002 0-0.411 0-0.744-0.332-0.746-0.742v-0c0-0.409 0.335-0.742 0.748-0.742s0.748 0.333 0.748 0.742zM4.141 23.324c-0.102 0.101-0.242 0.163-0.397 0.163s-0.294-0.062-0.396-0.162l0 0c-0.101-0.1-0.164-0.238-0.164-0.392s0.063-0.292 0.164-0.392l0-0 0.892-0.889 0.79 0.786-0.889 0.886zM7.122 26.787c-0.102 0.101-0.242 0.163-0.397 0.163s-0.294-0.062-0.396-0.163l0 0c-0.101-0.1-0.164-0.238-0.164-0.392s0.063-0.292 0.164-0.392l0-0 0.893-0.889 0.79 0.786-0.89 0.886zM10.352 23.57l-0.002 0.001-1.637 1.632-0.79-0.786 1.636-1.629s0.001 0 0.001-0.001c0.037-0.037 0.060-0.082 0.083-0.125 0.006-0.013 0.019-0.024 0.024-0.037 0.015-0.038 0.018-0.079 0.023-0.12 0.003-0.023 0.013-0.044 0.013-0.067 0-0.033-0.012-0.065-0.019-0.098-0.006-0.030-0.006-0.060-0.017-0.089-0.019-0.046-0.051-0.088-0.085-0.128-0.009-0.011-0.013-0.025-0.023-0.035h-0l-0.001-0.002-1.491-1.484c-0.016-0.016-0.036-0.022-0.054-0.036-0.024-0.019-0.050-0.037-0.078-0.052l-0.003-0.001c-0.025-0.012-0.053-0.022-0.084-0.029l-0.003-0.001c-0.028-0.009-0.060-0.015-0.094-0.018l-0.002-0c-0.006-0-0.012-0-0.019-0-0.024 0-0.048 0.002-0.072 0.005l0.003-0c-0.036 0.003-0.069 0.010-0.1 0.019l0.003-0.001c-0.033 0.012-0.062 0.026-0.089 0.043l0.002-0.001c-0.019 0.010-0.039 0.014-0.057 0.026l-1.645 1.228-0.835-0.832 2.225-2.214 4.044 3.978-0.86 0.852zM16.676 17.061c-0.014-0.002-0.028 0.004-0.042 0.003-0.007-0-0.016-0.001-0.024-0.001-0.029 0-0.058 0.003-0.085 0.008l0.003-0c-0.065 0.010-0.122 0.032-0.174 0.064l0.002-0.001c-0.028 0.017-0.053 0.035-0.077 0.057-0.012 0.010-0.026 0.015-0.037 0.027l-4.358 4.773-4.014-3.949 2.628-2.614c0.089-0.090 0.145-0.213 0.145-0.35 0-0.274-0.222-0.495-0.495-0.495-0 0-0.001 0-0.001 0h0l-2.058 0.012 0.025-1.491 2.879 0.025c1.172 1.203 2.808 1.949 4.618 1.949 0.001 0 0.002 0 0.003 0h-0c0.406 0 0.801-0.042 1.187-0.114 0.037 0.030 0.074 0.060 0.121 0.079l2.234 0.89 0.141 0.703 0.166 0.821-2.785-0.396zM20.425 17.227l-0.291-1.445 1.342-1.002 0.878 1.165-1.929 1.281zM23.906 14.601l-0.777 0.728-0.864-1.147 0.771-0.591c0.144-0.111 0.325-0.156 0.503-0.133 0.179 0.025 0.338 0.119 0.445 0.263 0.201 0.271 0.167 0.648-0.079 0.879z"></path>
<path fill="#2e2f42" d="M14.471 17.2l-1.988-1.979c-0.089-0.089-0.213-0.144-0.349-0.144s-0.26 0.055-0.349 0.144l-1.987 1.979c-0.090 0.090-0.145 0.214-0.145 0.351s0.055 0.261 0.145 0.351l-0-0 1.987 1.978c0.089 0.089 0.213 0.144 0.349 0.144s0.26-0.055 0.349-0.144l1.988-1.978c0.090-0.090 0.146-0.214 0.146-0.351s-0.056-0.261-0.146-0.351l-0-0zM12.135 18.832l-1.286-1.281 1.286-1.28 1.287 1.28-1.287 1.281zM17.775 4.704l-0.239 0.96c0.066 0.016 1.612 0.419 1.612 1.993h0.99c0-1.871-1.545-2.751-2.362-2.954zM20.138 8.646h-0.989v0.99h0.989v-0.99z"></path>
</svg>
